<?xml version="1.0" encoding="utf-8"?>
<!-- Generator: Adobe Illustrator 24.3.0, SVG Export Plug-In . SVG Version: 6.00 Build 0)  -->
<svg version="1.1" id="Capa_1" xmlns="http://www.w3.org/2000/svg" xmlns:xlink="http://www.w3.org/1999/xlink" x="0px" y="0px"
	 viewBox="0 0 16 16" style="enable-background:new 0 0 16 16;" xml:space="preserve">
<style type="text/css">
	.st0{fill-rule:evenodd;clip-rule:evenodd;fill:#FFFFFF;stroke:#FFFFFF;stroke-miterlimit:10;}
</style>
<path class="st0" d="M8.4,8.5C8.1,9,5.2,13,5.2,13c-0.2,0.3-0.2,0.7,0,1s0.5,0.3,0.7,0L10,8.3c0.2-0.3,0.2-0.7,0-1c0,0,0,0,0,0
	L5.9,1.6c-0.2-0.3-0.5-0.3-0.7,0C5,1.9,5,2.3,5.2,2.6c0,0,2.9,4,3.2,4.5C8.8,7.6,8.8,8.1,8.4,8.5z"/>
</svg>
